<svg xmlns="http://www.w3.org/2000/svg" xmlns:xlink="http://www.w3.org/1999/xlink" width="500" zoomAndPan="magnify" viewBox="0 0 375 374.999991" height="500" preserveAspectRatio="xMidYMid meet" version="1.0"><defs><g/><clipPath id="a1f1b0b52c"><path d="M 81.636719 28.660156 L 293.847656 28.660156 L 293.847656 222.886719 L 81.636719 222.886719 Z M 81.636719 28.660156 " clip-rule="nonzero"/></clipPath></defs><rect x="-37.5" width="450" fill="#ffffff" y="-37.499999" height="449.999989" fill-opacity="1"/><rect x="-37.5" width="450" fill="#e7e7e7" y="-37.499999" height="449.999989" fill-opacity="1"/><path fill="#1d1d1d" d="M 240.738281 147.980469 C 240.660156 150.730469 239.582031 152.425781 237.339844 153.425781 C 235.03125 154.457031 233.25 153.550781 231.789062 151.902344 C 230.957031 150.960938 230.433594 149.742188 229.800781 148.628906 C 228.230469 145.859375 225.945312 143.921875 222.71875 143.941406 C 219.582031 143.964844 217 145.4375 215.449219 148.355469 C 214.988281 149.226562 214.523438 150.113281 213.96875 150.929688 C 212.1875 153.535156 209.730469 154.417969 207.390625 153.34375 C 204.8125 152.160156 203.699219 149.695312 204.570312 146.621094 C 206.421875 140.066406 210.851562 135.964844 217.261719 134.050781 C 226.699219 131.230469 237.371094 136.855469 240.207031 146.003906 C 240.441406 146.753906 240.617188 147.523438 240.738281 147.980469 Z M 240.738281 147.980469 " fill-opacity="1" fill-rule="nonzero"/><g clip-path="url(#a1f1b0b52c)"><path fill="#1d1d1d" d="M 293.304688 139.746094 C 293.234375 130.894531 288.25 124.671875 279.566406 122.820312 C 277.675781 122.417969 276.960938 121.597656 276.53125 119.914062 C 270.496094 96.261719 246.503906 80.660156 225.878906 81.167969 C 215.058594 81.429688 204.226562 81.214844 192.949219 81.214844 C 192.949219 74.457031 192.898438 68.105469 193.023438 61.753906 C 193.039062 61.0625 193.9375 60.144531 194.652344 59.753906 C 200.402344 56.597656 204.273438 50.152344 203.519531 44.375 C 202.570312 37.050781 198.75 31.789062 191.617188 29.449219 C 190.246094 29 188.863281 28.761719 187.496094 28.710938 C 186.132812 28.761719 184.75 29 183.378906 29.449219 C 176.242188 31.789062 172.425781 37.050781 171.472656 44.375 C 170.722656 50.152344 174.59375 56.597656 180.339844 59.753906 C 181.058594 60.144531 181.957031 61.0625 181.96875 61.753906 C 182.097656 68.105469 182.042969 74.457031 182.042969 81.214844 C 170.769531 81.214844 159.9375 81.429688 149.117188 81.167969 C 128.492188 80.660156 104.496094 96.261719 98.460938 119.914062 C 98.03125 121.597656 97.320312 122.417969 95.425781 122.820312 C 86.742188 124.671875 81.761719 130.894531 81.691406 139.746094 C 81.632812 147.007812 81.660156 154.273438 81.75 161.535156 C 81.847656 169.492188 87.007812 176.070312 94.777344 177.972656 C 96.71875 178.449219 97.484375 179.292969 97.921875 181.203125 C 103.445312 205.191406 125.628906 222.816406 150.203125 222.824219 C 162.632812 222.832031 175.066406 222.847656 187.496094 222.847656 C 199.929688 222.847656 212.363281 222.832031 224.792969 222.824219 C 249.367188 222.816406 271.546875 205.191406 277.070312 181.203125 C 277.511719 179.292969 278.277344 178.449219 280.21875 177.972656 C 287.988281 176.070312 293.144531 169.492188 293.246094 161.535156 C 293.335938 154.273438 293.363281 147.007812 293.304688 139.746094 Z M 267.480469 165.894531 C 267.367188 170.222656 266.820312 174.640625 265.730469 178.824219 C 260.96875 197.09375 245.820312 209.929688 226.996094 210.875 C 213.859375 211.53125 200.667969 211.007812 187.496094 211.003906 C 174.328125 211.007812 161.132812 211.53125 148 210.875 C 129.175781 209.929688 114.027344 197.09375 109.265625 178.824219 C 108.175781 174.640625 107.625 170.222656 107.515625 165.894531 C 107.261719 156.050781 107.375 146.195312 107.453125 136.34375 C 107.644531 111.566406 126.632812 92.714844 151.414062 92.683594 C 163.441406 92.667969 175.46875 92.664062 187.496094 92.664062 C 199.523438 92.664062 211.550781 92.667969 223.578125 92.683594 C 248.363281 92.714844 267.351562 111.566406 267.542969 136.34375 C 267.621094 146.195312 267.730469 156.050781 267.480469 165.894531 Z M 267.480469 165.894531 " fill-opacity="1" fill-rule="nonzero"/></g><path fill="#1d1d1d" d="M 212.695312 172.910156 C 210.335938 171.882812 207.675781 172.679688 205.824219 174.96875 C 205.699219 175.125 205.566406 175.277344 205.46875 175.445312 C 201.851562 181.472656 194.820312 184.988281 187.496094 185.167969 C 180.171875 184.988281 173.144531 181.472656 169.527344 175.445312 C 169.425781 175.277344 169.292969 175.125 169.171875 174.96875 C 167.320312 172.679688 164.660156 171.882812 162.300781 172.910156 C 159.867188 173.96875 158.457031 176.703125 159.414062 179.644531 C 160.0625 181.644531 161.253906 183.617188 162.652344 185.207031 C 169.246094 192.722656 177.78125 195.941406 187.496094 196.269531 C 197.214844 195.941406 205.75 192.722656 212.34375 185.207031 C 213.742188 183.617188 214.929688 181.644531 215.582031 179.644531 C 216.539062 176.703125 215.128906 173.96875 212.695312 172.910156 Z M 212.695312 172.910156 " fill-opacity="1" fill-rule="nonzero"/><path fill="#1d1d1d" d="M 167.722656 143.820312 C 167.804688 135.082031 161.070312 128.191406 152.417969 128.152344 C 144.207031 128.117188 137.308594 135.035156 137.25 143.359375 C 137.191406 152.34375 143.601562 158.988281 152.363281 159.03125 C 160.972656 159.070312 167.644531 152.460938 167.722656 143.820312 Z M 167.722656 143.820312 " fill-opacity="1" fill-rule="nonzero"/><path fill="#ffffff" d="M 187.492188 0 C 83.746094 0 0 83.746094 0 187.492188 C 0 291.238281 83.746094 374.984375 187.492188 374.984375 C 291.238281 374.984375 374.984375 291.238281 374.984375 187.492188 C 374.984375 83.746094 291.238281 0 187.492188 0 Z M 187.492188 358.320312 C 93.328125 358.320312 16.667969 281.65625 16.667969 187.492188 C 16.667969 93.328125 93.328125 16.667969 187.492188 16.667969 C 281.65625 16.667969 358.320312 93.328125 358.320312 187.492188 C 358.320312 281.65625 281.65625 358.320312 187.492188 358.320312 Z M 187.492188 358.320312 " fill-opacity="1" fill-rule="nonzero"/><g fill="#1d1d1d" fill-opacity="1"><g transform="translate(62.705365, 300.930987)"><g><path d="M 32.46875 -44.015625 L 32.46875 0 L 21.484375 0 L 21.484375 -44.015625 L 14.21875 -44.015625 L 14.21875 0 L 3.234375 0 L 3.234375 -44.015625 C 3.234375 -45.460938 3.53125 -46.859375 4.125 -48.203125 C 4.707031 -49.609375 5.484375 -50.769531 6.453125 -51.6875 C 7.367188 -52.65625 8.53125 -53.429688 9.9375 -54.015625 C 11.382812 -54.609375 12.8125 -54.90625 14.21875 -54.90625 L 21.484375 -54.90625 C 22.878906 -54.90625 24.304688 -54.609375 25.765625 -54.015625 C 25.972656 -53.960938 26.171875 -53.882812 26.359375 -53.78125 C 26.546875 -53.675781 26.75 -53.566406 26.96875 -53.453125 C 27.1875 -53.566406 27.390625 -53.675781 27.578125 -53.78125 C 27.765625 -53.882812 27.96875 -53.960938 28.1875 -54.015625 C 29.632812 -54.609375 31.0625 -54.90625 32.46875 -54.90625 L 39.734375 -54.90625 C 41.128906 -54.90625 42.554688 -54.609375 44.015625 -54.015625 C 45.410156 -53.484375 46.59375 -52.707031 47.5625 -51.6875 C 48.582031 -50.65625 49.363281 -49.492188 49.90625 -48.203125 C 50.445312 -46.960938 50.71875 -45.566406 50.71875 -44.015625 L 50.71875 0 L 39.734375 0 L 39.734375 -44.015625 Z M 32.46875 -44.015625 "/></g></g></g><g fill="#1d1d1d" fill-opacity="1"><g transform="translate(116.628787, 300.930987)"><g><path d="M 14.21875 -54.90625 L 14.21875 0 L 3.234375 0 L 3.234375 -54.90625 Z M 3.234375 -63.625 C 3.234375 -65.1875 3.753906 -66.492188 4.796875 -67.546875 C 5.847656 -68.597656 7.15625 -69.125 8.71875 -69.125 C 10.28125 -69.125 11.585938 -68.597656 12.640625 -67.546875 C 13.691406 -66.492188 14.21875 -65.1875 14.21875 -63.625 C 14.21875 -62.070312 13.691406 -60.769531 12.640625 -59.71875 C 11.585938 -58.664062 10.28125 -58.140625 8.71875 -58.140625 C 7.15625 -58.140625 5.847656 -58.664062 4.796875 -59.71875 C 3.753906 -60.769531 3.234375 -62.070312 3.234375 -63.625 Z M 3.234375 -63.625 "/></g></g></g><g fill="#1d1d1d" fill-opacity="1"><g transform="translate(134.065092, 300.930987)"><g><path d="M 32.46875 -44.015625 L 32.46875 0 L 21.484375 0 L 21.484375 -44.015625 L 14.21875 -44.015625 L 14.21875 0 L 3.234375 0 L 3.234375 -44.015625 C 3.234375 -45.460938 3.53125 -46.859375 4.125 -48.203125 C 4.707031 -49.609375 5.484375 -50.769531 6.453125 -51.6875 C 7.367188 -52.65625 8.53125 -53.429688 9.9375 -54.015625 C 11.382812 -54.609375 12.8125 -54.90625 14.21875 -54.90625 L 21.484375 -54.90625 C 22.878906 -54.90625 24.304688 -54.609375 25.765625 -54.015625 C 25.972656 -53.960938 26.171875 -53.882812 26.359375 -53.78125 C 26.546875 -53.675781 26.75 -53.566406 26.96875 -53.453125 C 27.1875 -53.566406 27.390625 -53.675781 27.578125 -53.78125 C 27.765625 -53.882812 27.96875 -53.960938 28.1875 -54.015625 C 29.632812 -54.609375 31.0625 -54.90625 32.46875 -54.90625 L 39.734375 -54.90625 C 41.128906 -54.90625 42.554688 -54.609375 44.015625 -54.015625 C 45.410156 -53.484375 46.59375 -52.707031 47.5625 -51.6875 C 48.582031 -50.65625 49.363281 -49.492188 49.90625 -48.203125 C 50.445312 -46.960938 50.71875 -45.566406 50.71875 -44.015625 L 50.71875 0 L 39.734375 0 L 39.734375 -44.015625 Z M 32.46875 -44.015625 "/></g></g></g><g fill="#1d1d1d" fill-opacity="1"><g transform="translate(187.988514, 300.930987)"><g><path d="M 32.46875 -44.015625 L 32.46875 0 L 21.484375 0 L 21.484375 -21.96875 L 14.21875 -21.96875 L 14.21875 0 L 3.234375 0 L 3.234375 -44.015625 C 3.234375 -45.460938 3.53125 -46.859375 4.125 -48.203125 C 4.707031 -49.609375 5.484375 -50.769531 6.453125 -51.6875 C 7.367188 -52.65625 8.53125 -53.429688 9.9375 -54.015625 C 11.382812 -54.609375 12.8125 -54.90625 14.21875 -54.90625 L 21.484375 -54.90625 C 22.878906 -54.90625 24.304688 -54.609375 25.765625 -54.015625 C 27.160156 -53.484375 28.34375 -52.707031 29.3125 -51.6875 C 30.332031 -50.65625 31.113281 -49.492188 31.65625 -48.203125 C 32.195312 -46.960938 32.46875 -45.566406 32.46875 -44.015625 Z M 14.21875 -32.953125 L 21.484375 -32.953125 L 21.484375 -44.015625 L 14.21875 -44.015625 Z M 14.21875 -32.953125 "/></g></g></g><g fill="#1d1d1d" fill-opacity="1"><g transform="translate(223.668377, 300.930987)"><g><path d="M 32.140625 -22.6875 C 32.617188 -21.507812 32.859375 -20.21875 32.859375 -18.8125 L 32.859375 0 L 21.890625 0 L 21.890625 -18.8125 L 18.890625 -21.96875 L 14.21875 -21.96875 L 14.21875 0 L 3.234375 0 L 3.234375 -51.59375 C 3.234375 -52.507812 3.554688 -53.289062 4.203125 -53.9375 C 4.847656 -54.582031 5.628906 -54.90625 6.546875 -54.90625 L 21.484375 -54.90625 C 23.046875 -54.90625 24.472656 -54.640625 25.765625 -54.109375 C 26.460938 -53.835938 27.09375 -53.5 27.65625 -53.09375 C 28.21875 -52.6875 28.769531 -52.242188 29.3125 -51.765625 C 29.789062 -51.222656 30.234375 -50.664062 30.640625 -50.09375 C 31.046875 -49.53125 31.382812 -48.898438 31.65625 -48.203125 C 32.195312 -46.910156 32.46875 -45.484375 32.46875 -43.921875 L 32.46875 -32.953125 C 32.46875 -31.390625 32.195312 -29.960938 31.65625 -28.671875 C 31.4375 -28.179688 31.191406 -27.71875 30.921875 -27.28125 C 30.660156 -26.851562 30.363281 -26.453125 30.03125 -26.078125 C 30.945312 -24.953125 31.648438 -23.820312 32.140625 -22.6875 Z M 14.21875 -32.953125 L 21.484375 -32.953125 L 21.484375 -43.921875 L 14.21875 -43.921875 Z M 14.21875 -32.953125 "/></g></g></g><g fill="#1d1d1d" fill-opacity="1"><g transform="translate(258.944612, 300.930987)"><g><path d="M 14.21875 -54.90625 L 14.21875 0 L 3.234375 0 L 3.234375 -54.90625 Z M 3.234375 -63.625 C 3.234375 -65.1875 3.753906 -66.492188 4.796875 -67.546875 C 5.847656 -68.597656 7.15625 -69.125 8.71875 -69.125 C 10.28125 -69.125 11.585938 -68.597656 12.640625 -67.546875 C 13.691406 -66.492188 14.21875 -65.1875 14.21875 -63.625 C 14.21875 -62.070312 13.691406 -60.769531 12.640625 -59.71875 C 11.585938 -58.664062 10.28125 -58.140625 8.71875 -58.140625 C 7.15625 -58.140625 5.847656 -58.664062 4.796875 -59.71875 C 3.753906 -60.769531 3.234375 -62.070312 3.234375 -63.625 Z M 3.234375 -63.625 "/></g></g></g><g fill="#1d1d1d" fill-opacity="1"><g transform="translate(276.380917, 300.930987)"><g><path d="M 32.625 -10.90625 C 32.625 -9.34375 32.351562 -7.941406 31.8125 -6.703125 C 31.28125 -5.410156 30.5 -4.253906 29.46875 -3.234375 C 28.5 -2.265625 27.316406 -1.484375 25.921875 -0.890625 C 24.460938 -0.296875 23.035156 0 21.640625 0 L 14.125 0 C 12.675781 0 11.28125 -0.296875 9.9375 -0.890625 C 8.53125 -1.484375 7.367188 -2.265625 6.453125 -3.234375 C 5.484375 -4.148438 4.707031 -5.304688 4.125 -6.703125 C 3.53125 -8.046875 3.234375 -9.445312 3.234375 -10.90625 L 3.234375 -43.921875 C 3.234375 -45.328125 3.53125 -46.753906 4.125 -48.203125 C 4.707031 -49.609375 5.484375 -50.796875 6.453125 -51.765625 C 7.484375 -52.785156 8.644531 -53.566406 9.9375 -54.109375 C 11.175781 -54.640625 12.570312 -54.90625 14.125 -54.90625 L 21.640625 -54.90625 C 23.203125 -54.90625 24.628906 -54.640625 25.921875 -54.109375 C 26.617188 -53.835938 27.25 -53.5 27.8125 -53.09375 C 28.382812 -52.6875 28.9375 -52.242188 29.46875 -51.765625 C 29.957031 -51.222656 30.398438 -50.664062 30.796875 -50.09375 C 31.203125 -49.53125 31.539062 -48.898438 31.8125 -48.203125 C 32.351562 -46.910156 32.625 -45.484375 32.625 -43.921875 Z M 14.21875 -10.90625 L 21.640625 -10.90625 L 21.640625 -43.921875 L 14.21875 -43.921875 Z M 14.21875 -10.90625 "/></g></g></g></svg>